<?xml version="1.0" standalone="no"?>
<!DOCTYPE svg PUBLIC "-//W3C//DTD SVG 20010904//EN"
 "http://www.w3.org/TR/2001/REC-SVG-20010904/DTD/svg10.dtd">
<svg version="1.0" xmlns="http://www.w3.org/2000/svg"
 width="700.000000pt" height="700.000000pt" viewBox="0 0 700.000000 700.000000"
 preserveAspectRatio="xMidYMid meet">

<g transform="translate(0.000000,700.000000) scale(0.100000,-0.100000)"
fill="#000000" stroke="none">
<path d="M0 3500 l0 -3500 3500 0 3500 0 0 3500 0 3500 -3500 0 -3500 0 0
-3500z m3350 1571 c361 -59 625 -177 834 -372 217 -202 343 -462 402 -824 25
-152 25 -511 0 -679 -56 -383 -190 -671 -416 -896 -250 -249 -580 -391 -1000
-429 -64 -6 -368 -11 -687 -11 l-573 0 0 1616 0 1615 683 -4 c473 -3 705 -8
757 -16z m2121 -2161 c118 -36 238 -137 298 -250 50 -95 65 -156 65 -260 0
-339 -300 -591 -625 -525 -110 22 -189 65 -269 145 -106 108 -160 234 -160
380 0 146 54 273 160 380 145 144 335 191 531 130z"/>
<path d="M2770 3481 l0 -903 193 5 c210 5 267 16 372 69 137 69 231 172 294
322 94 227 115 639 46 911 -63 249 -198 402 -415 470 -42 14 -107 19 -273 24
l-217 6 0 -904z"/>
</g>
</svg>
